# xmcd
#
# Track frame offsets:
#	150
#	19011
#	42404
#	64679
#	82489
#	98103
#	115809
#	137740
#	155748
#	179880
#
# Disc length: 2643 seconds
#
# Revision: 4294705154
# Processed by: cddbd v1.5.2PL0 Copyright (c) Steve Scherf et al.
# Submitted via: EZCDAudioConverter 8.0.2.1
#
DISCID=900a510a
DTITLE=Hà Thanh Xuân - Phận Tơ Tằm
DYEAR=2012
DGENRE=
TTITLE0=Hà Thanh Xuân - Qua cơn mê
TTITLE1=Hà Thanh Xuân - Tôi không còn yêu em
TTITLE2=Hà Thanh Xuân - Xin thời gian qua mau
TTITLE3=Hà Thanh Xuân - Phạn Tơ Tằm
TTITLE4=Hà Thanh Xuân - Lần đầu nói dối
TTITLE5=Hà Thanh Xuân, Quốc Khanh - Good By My Love 
TTITLE6=Hà Thanh Xuân - Chuyện hợp tan
TTITLE7=Hà Thanh Xuân - Ai buồn hơn ai
TTITLE8=Hà Thanh Xuân, Đan Nguyên - Một người đi
TTITLE9=Hà Thanh Xuân - Yêu hết con tim
EXTD=
EXTT0=
EXTT1=
EXTT2=
EXTT3=
EXTT4=
EXTT5=
EXTT6=
EXTT7=
EXTT8=
EXTT9=
PLAYORDER=
